<svg width="151" height="38" viewBox="0 0 151 38" fill="none" xmlns="http://www.w3.org/2000/svg">
<g clip-path="url(#clip0_12096_17)">
<path d="M54.3225 25.2087L62.8259 37.2719H53.9222L49.0688 30.3136L44.2165 37.2719H35.2617L43.7663 25.1585L35.2617 12.9951H44.5164L49.0688 19.4024L53.5712 12.9951H62.8259L54.3715 25.1585L54.3225 25.2087Z" fill="white"/>
<path d="M66.0938 4.60811C66.0938 1.95309 68.1986 0 70.8541 0C73.4591 0 75.6133 1.95309 75.6133 4.60811C75.6133 7.21397 73.4591 9.16706 70.8541 9.16706C68.1986 9.16706 66.0938 7.21397 66.0938 4.60811ZM74.9626 12.977V37.2719H66.8459V12.9749L74.9626 12.977Z" fill="white"/>
<path d="M106.591 25.1594C106.591 32.7045 101.079 37.986 93.2605 37.986C85.4421 37.986 79.8789 32.7045 79.8789 25.1594C79.8789 17.6636 85.4421 12.2812 93.2605 12.2812C101.079 12.2812 106.591 17.6636 106.591 25.1594ZM98.9733 25.1594C98.9733 21.6373 96.6187 19.1226 93.2605 19.1226C89.8531 19.1226 87.4973 21.6373 87.4973 25.1594C87.4973 28.7307 89.8531 31.1951 93.2605 31.1951C96.6217 31.1951 98.9763 28.7307 98.9763 25.1594H98.9733Z" fill="white"/>
<path d="M150.776 23.1694V37.2687H142.686V24.1721C142.686 20.8602 140.986 19.6563 138.69 19.6563C137.241 19.6563 135.941 20.1079 134.693 21.5129C134.736 21.98 134.752 22.449 134.743 22.9179V37.272H126.649V23.9216C126.649 20.6108 124.951 19.6574 122.903 19.6574C121.305 19.6574 119.906 20.2598 118.708 21.7141V37.2687H110.566V12.934H118.708V14.4385C120.406 13.0838 122.254 12.2812 124.951 12.2812C128.048 12.2812 130.595 13.285 132.344 15.2914C134.743 13.2347 137.239 12.2812 140.386 12.2812C146.68 12.2812 150.776 16.1453 150.776 23.1694Z" fill="white"/>
<path d="M15.5863 0C16.9866 0 18.2567 0.929128 18.8412 2.3796L30.544 31.4488C31.3702 33.4982 30.5792 35.921 28.7812 36.8605C26.9835 37.7999 24.8573 36.9008 24.0312 34.8526L15.5832 13.8626L7.11564 34.8547C6.28953 36.9029 4.16335 37.7999 2.36551 36.8595C0.567708 35.9189 -0.216062 33.4949 0.610044 31.4469L12.3315 2.3765C12.916 0.928096 14.1871 0 15.5863 0Z" fill="white"/>
<path d="M10.1282 7.75684L0.351267 31.5171C-0.533135 33.5876 0.310038 36.0433 2.23449 36.9959C4.15894 37.9482 6.43799 37.0393 7.32135 34.9666L15.5758 13.7883L10.1282 7.75684Z" fill="url(#paint0_linear_12096_17)"/>
<path d="M22.1345 10.7188L15.5742 13.8946L23.7613 34.9751C24.6512 37.0367 26.943 37.9459 28.893 36.9997C30.8431 36.0534 31.6856 33.6104 30.7957 31.5457L22.1345 10.7188Z" fill="url(#paint1_linear_12096_17)"/>
<path d="M3.86415 9.02646C4.80058 9.02022 5.7049 9.3674 6.3963 9.99862L29.8228 31.7073C30.1528 32.0029 30.4168 32.3648 30.5974 32.7692C30.7781 33.1738 30.8714 33.6118 30.8714 34.0546C30.8714 34.4975 30.7781 34.9354 30.5974 35.3401C30.4168 35.7445 30.1528 36.1062 29.8228 36.402C28.4235 37.6982 26.1559 37.6982 24.7565 36.402L1.33095 14.6933C1.00068 14.3978 0.73649 14.036 0.555617 13.6315C0.374742 13.227 0.28125 12.789 0.28125 12.346C0.28125 11.9029 0.374742 11.4649 0.555617 11.0604C0.73649 10.656 1.00068 10.2941 1.33095 9.99862C2.02261 9.36717 2.92734 9.01996 3.86415 9.02646Z" fill="url(#paint2_linear_12096_17)"/>
<path d="M27.289 9.02646C28.226 9.01996 29.1309 9.36717 29.8226 9.99862C30.1526 10.2943 30.4168 10.6562 30.5974 11.0606C30.7781 11.4651 30.8714 11.903 30.8714 12.346C30.8714 12.7889 30.7781 13.2268 30.5974 13.6313C30.4168 14.0357 30.1526 14.3976 29.8226 14.6933L6.39217 36.402C4.99263 37.6982 2.72551 37.6982 1.33113 36.402C1.00081 36.1064 0.736567 35.7447 0.555662 35.3401C0.374758 34.9357 0.28125 34.4977 0.28125 34.0546C0.28125 33.6115 0.374758 33.1736 0.555662 32.769C0.736567 32.3646 1.00081 32.0029 1.33113 31.7073L24.7554 9.99862C25.4473 9.36717 26.3522 9.01996 27.289 9.02646Z" fill="url(#paint3_linear_12096_17)"/>
</g>
<defs>
<linearGradient id="paint0_linear_12096_17" x1="13.1483" y1="6.44928" x2="2.61782" y2="39.0074" gradientUnits="userSpaceOnUse">
<stop offset="0.19" stop-color="white"/>
<stop offset="0.66" stop-color="#5740FF"/>
</linearGradient>
<linearGradient id="paint1_linear_12096_17" x1="16.7042" y1="4.24955" x2="29.6438" y2="40.796" gradientUnits="userSpaceOnUse">
<stop offset="0.24" stop-color="white"/>
<stop offset="0.8" stop-color="#ED1E79"/>
</linearGradient>
<linearGradient id="paint2_linear_12096_17" x1="29.038" y1="36.276" x2="2.57022" y2="10.5337" gradientUnits="userSpaceOnUse">
<stop stop-color="#ED1E78"/>
<stop offset="1" stop-color="#FF3B86"/>
</linearGradient>
<linearGradient id="paint3_linear_12096_17" x1="0.715539" y1="33.6444" x2="26.9879" y2="15.1469" gradientUnits="userSpaceOnUse">
<stop stop-color="#5740FF"/>
<stop offset="1" stop-color="#7B71FF"/>
</linearGradient>
<clipPath id="clip0_12096_17">
<rect width="151" height="38" fill="white"/>
</clipPath>
</defs>
</svg>
